<svg xmlns="http://www.w3.org/2000/svg" width="24" height="24" id="chat">
  <path fill="none" d="M0 0h24v24H0Z"></path>
  <path fill="#525863" d="M16.16 18.383a9.645 9.645 0 0 1-2.843.421 9.146 9.146 0 0 1-4.865-1.345 11.567 11.567 0 0 0 2.348.241 11.132 11.132 0 0 0 4.608-.978c.073-.021.148-.037.22-.059a1.8 1.8 0 0 1 .531-.08 1.8 1.8 0 0 1 1.055.341l.441.319-.05-.171a1.8 1.8 0 0 1 .485-1.806 4.069 4.069 0 0 0 1.048-1.586 6.919 6.919 0 0 0 1.251-3.619 5.069 5.069 0 0 1 .727 2.593 5.407 5.407 0 0 1-1.784 3.914c.8 2.738 1.138 3.594.564 3.912a.6.6 0 0 1-.3.085c-.454 0-1.163-.538-3.436-2.182Zm-11.941-.807c-.573-.318-.234-1.174.564-3.911A5.407 5.407 0 0 1 3 9.75c0-3.4 3.492-6.15 7.8-6.15s7.8 2.753 7.8 6.15-3.492 6.15-7.8 6.15a9.642 9.642 0 0 1-2.842-.421c-2.273 1.644-2.983 2.182-3.437 2.182a.6.6 0 0 1-.302-.085Zm.58-7.826a3.65 3.65 0 0 0 1.227 2.612 1.8 1.8 0 0 1 .485 1.806l-.05.171.441-.319a1.8 1.8 0 0 1 1.055-.342 1.8 1.8 0 0 1 .531.08 7.828 7.828 0 0 0 2.312.341c3.252 0 6-1.992 6-4.35s-2.748-4.35-6-4.35-6 1.993-6 4.351Z"></path>
</svg>
